<?xml version="1.0" encoding="UTF-8"?>
<!DOCTYPE svg PUBLIC "-//W3C//DTD SVG 1.1//EN" "http://www.w3.org/Graphics/SVG/1.1/DTD/svg11.dtd">
<svg xmlns="http://www.w3.org/2000/svg" version="1.1" width="500px" height="500px" style="shape-rendering:geometricPrecision; text-rendering:geometricPrecision; image-rendering:optimizeQuality; fill-rule:evenodd; clip-rule:evenodd" xmlns:xlink="http://www.w3.org/1999/xlink">
<g><path style="opacity:1" fill="#fefefe" d="M -0.5,-0.5 C 166.167,-0.5 332.833,-0.5 499.5,-0.5C 499.5,166.167 499.5,332.833 499.5,499.5C 332.833,499.5 166.167,499.5 -0.5,499.5C -0.5,332.833 -0.5,166.167 -0.5,-0.5 Z"/></g>
<g><path style="opacity:1" fill="#050505" d="M 225.5,7.5 C 299.917,3.31234 368.751,20.6457 432,59.5C 433.73,53.0418 437.397,51.3751 443,54.5C 443.875,55.8732 444.375,57.3732 444.5,59C 442.165,68.6888 440.998,78.5221 441,88.5C 439.958,123.29 441.625,157.956 446,192.5C 453.044,228.513 456.377,264.846 456,301.5C 455.884,328.324 448.217,352.658 433,374.5C 414.359,393.477 393.193,408.977 369.5,421C 332.396,438.046 296.729,457.379 262.5,479C 257.658,482.676 253.325,486.842 249.5,491.5C 248.197,489.063 246.53,486.896 244.5,485C 237.676,479.755 230.676,474.755 223.5,470C 187.325,450.412 150.992,431.079 114.5,412C 95.8242,401.576 79.3242,388.41 65,372.5C 52.2336,353.869 45.2336,333.202 44,310.5C 43.181,290.145 43.5143,269.812 45,249.5C 47.6729,228.783 50.6729,208.117 54,187.5C 57.6612,154.927 59.3279,122.26 59,89.5C 58.4976,78.3272 57.1643,67.3272 55,56.5C 60.5851,50.7698 64.7518,51.7698 67.5,59.5C 115.937,29.132 168.603,11.7987 225.5,7.5 Z"/></g>
<g><path style="opacity:1" fill="#f4f4f3" d="M 259.5,476.5 C 258.475,476.103 258.308,475.437 259,474.5C 280.47,448.361 305.636,426.528 334.5,409C 358.361,396.911 380.695,382.578 401.5,366C 410.947,357.611 417.78,347.445 422,335.5C 424.767,325.666 426.767,315.666 428,305.5C 428.692,286.484 428.359,267.484 427,248.5C 421.096,210.698 417.096,172.698 415,134.5C 414.335,115.441 414.669,96.4413 416,77.5C 334.378,29.4124 247.878,18.2458 156.5,44C 130.523,52.0745 106.023,63.2411 83,77.5C 84.784,132.858 81.1173,187.858 72,242.5C 68.7288,267.506 68.7288,292.506 72,317.5C 74.7189,337.875 83.8855,354.709 99.5,368C 122.829,385.641 147.496,401.308 173.5,415C 192.123,427.279 209.29,441.446 225,457.5C 230.118,462.773 234.618,468.439 238.5,474.5C 209.398,454.438 179.398,435.604 148.5,418C 124.797,402.889 102.631,385.722 82,366.5C 71.8056,353.933 65.4723,339.599 63,323.5C 60.0341,299.884 59.7008,276.218 62,252.5C 66.8996,218.97 70.5662,185.303 73,151.5C 74.0111,124.748 73.3444,98.0818 71,71.5C 145.804,23.8076 226.97,8.3076 314.5,25C 355.46,33.6527 393.627,49.1527 429,71.5C 428.16,77.7288 427.493,84.0622 427,90.5C 424.732,140.153 427.732,189.486 436,238.5C 439.197,262.782 439.864,287.115 438,311.5C 436.371,338.256 425.538,360.423 405.5,378C 387.228,393.469 367.895,407.469 347.5,420C 327.5,432 307.5,444 287.5,456C 277.96,462.598 268.626,469.432 259.5,476.5 Z"/></g>
<g><path style="opacity:1" fill="#244b82" d="M 259.5,476.5 C 255.863,479.306 252.696,482.639 250,486.5C 249.283,485.956 248.783,485.289 248.5,484.5C 244.833,481.5 241.5,478.167 238.5,474.5C 234.618,468.439 230.118,462.773 225,457.5C 209.29,441.446 192.123,427.279 173.5,415C 147.496,401.308 122.829,385.641 99.5,368C 83.8855,354.709 74.7189,337.875 72,317.5C 68.7288,292.506 68.7288,267.506 72,242.5C 81.1173,187.858 84.784,132.858 83,77.5C 106.023,63.2411 130.523,52.0745 156.5,44C 247.878,18.2458 334.378,29.4124 416,77.5C 414.669,96.4413 414.335,115.441 415,134.5C 417.096,172.698 421.096,210.698 427,248.5C 428.359,267.484 428.692,286.484 428,305.5C 426.767,315.666 424.767,325.666 422,335.5C 417.78,347.445 410.947,357.611 401.5,366C 380.695,382.578 358.361,396.911 334.5,409C 305.636,426.528 280.47,448.361 259,474.5C 258.308,475.437 258.475,476.103 259.5,476.5 Z"/></g>
<g><path style="opacity:1" fill="#f8f8f7" d="M 248.5,484.5 C 242.25,473.016 234.75,462.349 226,452.5C 208.143,432.689 187.977,415.856 165.5,402C 140.472,388.905 117.639,372.739 97,353.5C 86.6796,338.871 81.3463,322.538 81,304.5C 80.2229,288.476 80.5562,272.476 82,256.5C 88.2937,219.402 92.627,182.069 95,144.5C 95.4243,124.1 95.5909,103.767 95.5,83.5C 179.515,36.6488 266.848,29.4821 357.5,62C 373.017,68.0919 388.017,75.2585 402.5,83.5C 402.451,103.789 402.618,124.122 403,144.5C 404.177,156.818 405.177,169.151 406,181.5C 409.832,208.155 413.498,234.822 417,261.5C 418.105,282.569 417.438,303.569 415,324.5C 411.972,339.728 404.472,352.228 392.5,362C 373.374,377.401 353.041,391.068 331.5,403C 297.687,423.98 270.021,451.147 248.5,484.5 Z"/></g>
<g><path style="opacity:1" fill="#070707" d="M 250.5,58.5 C 257.148,59.1395 263.814,59.4728 270.5,59.5C 271.086,63.7189 270.086,67.3855 267.5,70.5C 268.893,75.8535 270.393,81.1868 272,86.5C 273.636,81.2576 275.47,76.0909 277.5,71C 275.773,67.7242 275.106,64.2242 275.5,60.5C 281.167,60.5 286.833,60.5 292.5,60.5C 292.5,63.8333 292.5,67.1667 292.5,70.5C 291.022,70.238 289.689,70.5713 288.5,71.5C 284.593,81.0577 280.593,90.5577 276.5,100C 271.182,100.022 265.849,99.8553 260.5,99.5C 258.778,90.1725 256.945,80.8392 255,71.5C 254.599,69.4788 253.432,68.1455 251.5,67.5C 250.516,64.5719 250.183,61.5719 250.5,58.5 Z"/></g>
<g><path style="opacity:1" fill="#080808" d="M 212.5,60.5 C 218.5,60.5 224.5,60.5 230.5,60.5C 230.511,62.5466 230.844,64.5466 231.5,66.5C 230.638,68.767 228.971,69.767 226.5,69.5C 227.232,76.4756 227.565,83.4756 227.5,90.5C 230.833,90.1667 234.167,89.8333 237.5,89.5C 237.261,87.5328 237.594,85.6995 238.5,84C 241.482,83.502 244.482,83.3354 247.5,83.5C 247.5,88.5 247.5,93.5 247.5,98.5C 235.817,99.3197 224.15,100.32 212.5,101.5C 212.183,98.4281 212.516,95.4281 213.5,92.5C 215.291,92.0381 216.291,90.8715 216.5,89C 215.779,83.1908 215.279,77.3574 215,71.5C 213.644,70.6198 212.144,70.2865 210.5,70.5C 210.492,67.4552 210.159,64.4552 209.5,61.5C 210.791,61.7373 211.791,61.404 212.5,60.5 Z"/></g>
<g><path style="opacity:1" fill="#070707" d="M 305.5,64.5 C 312.9,65.8498 320.233,67.5164 327.5,69.5C 328.332,79.8173 328.832,90.1506 329,100.5C 330.586,101.376 332.086,102.376 333.5,103.5C 332.803,106.29 331.803,108.957 330.5,111.5C 324.662,109.374 318.662,107.874 312.5,107C 312.043,106.586 311.709,106.086 311.5,105.5C 312.482,102.904 313.149,100.238 313.5,97.5C 314.5,97.5 315.5,97.5 316.5,97.5C 316.5,96.1667 316.5,94.8333 316.5,93.5C 313.412,92.9315 310.412,92.9315 307.5,93.5C 308.657,97.1837 308.657,101.184 307.5,105.5C 302.271,104.027 296.937,102.86 291.5,102C 290.557,99.1997 290.724,96.3663 292,93.5C 293.825,92.8971 295.659,92.2304 297.5,91.5C 300.333,86.5 303.167,81.5 306,76.5C 306.345,74.3228 305.845,72.3228 304.5,70.5C 305.156,68.5466 305.489,66.5466 305.5,64.5 Z"/></g>
<g><path style="opacity:1" fill="#050505" d="M 187.5,65.5 C 189.624,66.0312 191.124,67.3645 192,69.5C 195.745,77.3241 199.745,84.9908 204,92.5C 209.561,92.9337 211.727,95.9337 210.5,101.5C 204.811,102.672 199.144,104.005 193.5,105.5C 192.353,105.182 191.519,104.516 191,103.5C 189.164,100.432 189.33,97.5987 191.5,95C 191.333,93.5 190.5,92.6667 189,92.5C 186.804,93.0903 184.638,93.7569 182.5,94.5C 181.571,95.6888 181.238,97.0222 181.5,98.5C 182.822,98.33 183.989,98.6634 185,99.5C 185.822,102.117 186.322,104.784 186.5,107.5C 180.861,108.66 175.195,109.66 169.5,110.5C 168.737,107.859 168.57,105.192 169,102.5C 170,101.833 171,101.167 172,100.5C 172.5,93.5079 172.666,86.5079 172.5,79.5C 171.178,79.67 170.011,79.3366 169,78.5C 168.433,75.8323 167.933,73.1656 167.5,70.5C 174.276,68.8059 180.943,67.1392 187.5,65.5 Z"/></g>
<g><path style="opacity:1" fill="#e7e7e5" d="M 183.5,79.5 C 184.441,81.4664 185.441,83.4664 186.5,85.5C 185.234,86.3624 183.901,87.0291 182.5,87.5C 182.194,84.6146 182.527,81.9479 183.5,79.5 Z"/></g>
<g><path style="opacity:1" fill="#e6e6e4" d="M 315.5,78.5 C 316.473,80.9479 316.806,83.6146 316.5,86.5C 314.365,86.853 313.032,86.0197 312.5,84C 313.632,82.2355 314.632,80.4021 315.5,78.5 Z"/></g>
<g><path style="opacity:1" fill="#777777" d="M 183.5,79.5 C 182.527,81.9479 182.194,84.6146 182.5,87.5C 181.197,84.6447 181.197,81.6447 182.5,78.5C 183.107,78.6236 183.44,78.9569 183.5,79.5 Z"/></g>
<g><path style="opacity:1" fill="#234b82" d="M 226.5,219.5 C 226.312,221.103 226.812,222.437 228,223.5C 228.499,219.514 228.666,215.514 228.5,211.5C 233.839,190.166 247.505,178.5 269.5,176.5C 272.037,176.397 274.371,176.897 276.5,178C 273.44,178.848 270.44,179.848 267.5,181C 276.965,181.294 285.965,179.294 294.5,175C 300.301,174.726 305.968,173.726 311.5,172C 297.81,171.755 284.143,171.088 270.5,170C 272.909,168.293 275.575,167.46 278.5,167.5C 294.503,167.667 310.503,167.5 326.5,167C 324.75,165.681 322.75,165.181 320.5,165.5C 315.105,165.345 309.772,164.678 304.5,163.5C 307,160.5 309.5,157.5 312,154.5C 312.667,153.833 312.667,153.167 312,152.5C 300.609,164.717 299.776,164.051 309.5,150.5C 307.833,149.833 306.167,149.167 304.5,148.5C 309.081,142.274 315.081,140.774 322.5,144C 343.31,154.388 348.144,169.888 337,190.5C 337.289,184.168 335.789,178.335 332.5,173C 324.074,173.106 316.074,175.106 308.5,179C 295.324,180.823 286.157,187.99 281,200.5C 278.598,211.561 280.931,221.561 288,230.5C 300.323,240.476 309.99,252.476 317,266.5C 317.788,268.165 318.122,269.831 318,271.5C 315,274.5 312,277.5 309,280.5C 307.332,263.656 299.832,250.156 286.5,240C 278.667,235.584 271,230.918 263.5,226C 259.518,221.874 256.685,217.041 255,211.5C 255.946,222.47 261.113,230.97 270.5,237C 293.399,246.631 303.565,263.798 301,288.5C 293.198,297.303 285.031,305.803 276.5,314C 241.434,293.2 206.601,271.7 172,249.5C 171.333,248.833 171.333,248.167 172,247.5C 186.498,234.439 197.498,219.105 205,201.5C 193.296,218.269 177.129,226.436 156.5,226C 179.662,216.833 196.162,201 206,178.5C 200.999,186.658 193.833,191.991 184.5,194.5C 183.833,194.167 183.167,193.833 182.5,193.5C 192.856,178.311 206.189,166.478 222.5,158C 218.833,157.333 215.167,157.333 211.5,158C 205.694,159.167 200.028,160.5 194.5,162C 204.155,149.167 216.821,140.834 232.5,137C 226.333,133.503 219.667,131.836 212.5,132C 229.478,126.783 246.145,127.783 262.5,135C 256.833,135.333 251.167,135.667 245.5,136C 249.243,137.136 252.91,138.47 256.5,140C 244.248,139.962 233.248,143.628 223.5,151C 222.304,151.654 222.304,152.154 223.5,152.5C 233.533,148.264 244.033,146.264 255,146.5C 267.973,146.654 280.806,147.987 293.5,150.5C 294.167,150.333 294.833,150.167 295.5,150C 297.5,147.667 299.5,145.333 301.5,143C 290.877,135.03 278.877,131.03 265.5,131C 251.567,128.7 239.567,122.7 229.5,113C 248.49,118.58 267.823,123.246 287.5,127C 295.321,129.158 302.155,132.992 308,138.5C 305.78,143.433 302.613,147.933 298.5,152C 292.552,155.557 286.386,158.724 280,161.5C 275.949,163.127 271.783,163.627 267.5,163C 254.101,153.975 241.101,154.642 228.5,165C 219.161,173.182 213.661,183.349 212,195.5C 214.665,189.171 218.498,183.671 223.5,179C 224.167,178.333 224.833,178.333 225.5,179C 217.86,189.25 215.36,200.75 218,213.5C 219.717,205.401 223.05,198.068 228,191.5C 227.968,193.598 227.301,195.598 226,197.5C 225.274,204.869 225.441,212.202 226.5,219.5 Z"/></g>
<g><path style="opacity:1" fill="#e3e8ec" d="M 263.5,152.5 C 264.552,152.351 265.552,152.517 266.5,153C 269.833,159 273.167,159 276.5,153C 277.448,152.517 278.448,152.351 279.5,152.5C 278.542,159.598 274.542,162.098 267.5,160C 264.603,158.285 263.269,155.785 263.5,152.5 Z"/></g>
<g><path style="opacity:1" fill="#8da2bc" d="M 320.5,165.5 C 322.75,165.181 324.75,165.681 326.5,167C 310.503,167.5 294.503,167.667 278.5,167.5C 292.5,166.833 306.5,166.167 320.5,165.5 Z"/></g>
<g><path style="opacity:1" fill="#050505" d="M 123.5,222.5 C 122.817,220.824 121.483,220.157 119.5,220.5C 118.596,221.209 118.263,222.209 118.5,223.5C 123.275,223.67 123.608,224.67 119.5,226.5C 118.596,227.209 118.263,228.209 118.5,229.5C 121.564,229.072 124.564,228.406 127.5,227.5C 127.5,229.5 127.5,231.5 127.5,233.5C 122.5,233.5 117.5,233.5 112.5,233.5C 113.229,230.72 113.896,227.887 114.5,225C 113.896,222.113 113.229,219.28 112.5,216.5C 117.5,216.5 122.5,216.5 127.5,216.5C 127.5,218.5 127.5,220.5 127.5,222.5C 126.167,222.5 124.833,222.5 123.5,222.5 Z"/></g>
<g><path style="opacity:1" fill="#0c0c0c" d="M 143.5,221.5 C 141.708,221.634 140.042,221.301 138.5,220.5C 137.022,220.238 135.689,220.571 134.5,221.5C 135.325,222.386 136.325,222.719 137.5,222.5C 137.842,223.338 138.508,223.672 139.5,223.5C 145.316,225.407 145.983,228.574 141.5,233C 138.5,233.667 135.5,233.667 132.5,233C 130.393,231.736 129.393,229.903 129.5,227.5C 132.564,227.928 135.564,228.594 138.5,229.5C 138.5,228.5 138.5,227.5 138.5,226.5C 132.139,227.303 129.306,224.636 130,218.5C 130.5,218 131,217.5 131.5,217C 134.833,216.333 138.167,216.333 141.5,217C 143.037,218.11 143.703,219.61 143.5,221.5 Z"/></g>
<g><path style="opacity:1" fill="#0d0d0d" d="M 359.5,229.5 C 360.477,226.713 360.81,223.713 360.5,220.5C 359.5,220.5 358.5,220.5 357.5,220.5C 357.5,219.5 357.5,218.5 357.5,217.5C 360.127,216.908 362.794,216.575 365.5,216.5C 365.266,222.308 365.933,227.974 367.5,233.5C 364.167,233.5 360.833,233.5 357.5,233.5C 357.157,231.517 357.824,230.183 359.5,229.5 Z"/></g>
<g><path style="opacity:1" fill="#0f0f0f" d="M 372.5,216.5 C 375.85,216.335 379.183,216.502 382.5,217C 383,217.5 383.5,218 384,218.5C 384.667,222.833 384.667,227.167 384,231.5C 379.8,234.133 375.633,234.133 371.5,231.5C 370.571,230.311 370.238,228.978 370.5,227.5C 373.564,227.928 376.564,228.594 379.5,229.5C 379.5,228.5 379.5,227.5 379.5,226.5C 370.751,227.434 368.417,224.101 372.5,216.5 Z"/></g>
<g><path style="opacity:1" fill="#6782a7" d="M 228.5,211.5 C 228.666,215.514 228.499,219.514 228,223.5C 226.812,222.437 226.312,221.103 226.5,219.5C 227.167,216.833 227.833,214.167 228.5,211.5 Z"/></g>
<g><path style="opacity:1" fill="#f8f8f6" d="M 119.5,220.5 C 121.483,220.157 122.817,220.824 123.5,222.5C 121.517,222.843 120.183,222.176 119.5,220.5 Z"/></g>
<g><path style="opacity:1" fill="#eaeae9" d="M 138.5,220.5 C 138.672,221.492 138.338,222.158 137.5,222.5C 136.325,222.719 135.325,222.386 134.5,221.5C 135.689,220.571 137.022,220.238 138.5,220.5 Z"/></g>
<g><path style="opacity:1" fill="#f7f7f5" d="M 375.5,220.5 C 376.978,220.238 378.311,220.571 379.5,221.5C 378.833,221.833 378.167,222.167 377.5,222.5C 376.287,222.253 375.62,221.586 375.5,220.5 Z"/></g>
<g><path style="opacity:1" fill="#949493" d="M 357.5,220.5 C 358.5,220.5 359.5,220.5 360.5,220.5C 360.81,223.713 360.477,226.713 359.5,229.5C 359.909,226.145 359.242,223.145 357.5,220.5 Z"/></g>
<g><path style="opacity:1" fill="#676766" d="M 138.5,220.5 C 140.042,221.301 141.708,221.634 143.5,221.5C 142.167,222.167 140.833,222.833 139.5,223.5C 138.508,223.672 137.842,223.338 137.5,222.5C 138.338,222.158 138.672,221.492 138.5,220.5 Z"/></g>
<g><path style="opacity:1" fill="#676766" d="M 119.5,220.5 C 120.183,222.176 121.517,222.843 123.5,222.5C 123.5,223.833 123.5,225.167 123.5,226.5C 122.167,226.5 120.833,226.5 119.5,226.5C 123.608,224.67 123.275,223.67 118.5,223.5C 118.263,222.209 118.596,221.209 119.5,220.5 Z"/></g>
<g><path style="opacity:1" fill="#eaedf0" d="M 240.5,220.5 C 242.49,227.297 246.157,233.131 251.5,238C 261.794,243.73 271.294,250.564 280,258.5C 286.115,266.509 288.782,275.509 288,285.5C 285.529,273.36 279.362,263.526 269.5,256C 261.715,251.691 254.548,246.524 248,240.5C 243.545,234.586 241.045,227.919 240.5,220.5 Z"/></g>
<g><path style="opacity:1" fill="#eef1f2" d="M 205.5,225.5 C 211.955,240.788 222.955,251.621 238.5,258C 254.531,261.595 268.031,269.428 279,281.5C 282.005,285.123 284.005,289.123 285,293.5C 279.72,286.099 273.22,279.932 265.5,275C 256.404,270.745 247.071,267.079 237.5,264C 219.884,256.931 209.217,244.098 205.5,225.5 Z"/></g>
<g><path style="opacity:1" fill="#959594" d="M 127.5,238.5 C 121.833,238.5 116.167,238.5 110.5,238.5C 110.5,240.833 110.5,243.167 110.5,245.5C 109.527,243.052 109.194,240.385 109.5,237.5C 115.69,237.177 121.69,237.51 127.5,238.5 Z"/></g>
<g><path style="opacity:1" fill="#959594" d="M 141.5,238.5 C 137.5,238.5 133.5,238.5 129.5,238.5C 129.5,239.5 129.5,240.5 129.5,241.5C 128.566,240.432 128.232,239.099 128.5,237.5C 133.032,237.182 137.366,237.515 141.5,238.5 Z"/></g>
<g><path style="opacity:1" fill="#181818" d="M 127.5,238.5 C 127.5,240.833 127.5,243.167 127.5,245.5C 126.167,245.5 124.833,245.5 123.5,245.5C 123.719,244.325 123.386,243.325 122.5,242.5C 122.167,244 121.833,245.5 121.5,247C 122.104,249.887 122.771,252.72 123.5,255.5C 120.167,255.5 116.833,255.5 113.5,255.5C 114.229,252.72 114.896,249.887 115.5,247C 115.167,245.5 114.833,244 114.5,242.5C 113.614,243.325 113.281,244.325 113.5,245.5C 112.5,245.5 111.5,245.5 110.5,245.5C 110.5,243.167 110.5,240.833 110.5,238.5C 116.167,238.5 121.833,238.5 127.5,238.5 Z"/></g>
<g><path style="opacity:1" fill="#0e0e0e" d="M 141.5,238.5 C 142.688,239.364 143.855,240.364 145,241.5C 146.653,253.994 141.153,258.661 128.5,255.5C 129.229,252.72 129.896,249.887 130.5,247C 130.419,245.076 130.086,243.243 129.5,241.5C 129.5,240.5 129.5,239.5 129.5,238.5C 133.5,238.5 137.5,238.5 141.5,238.5 Z"/></g>
<g><path style="opacity:1" fill="#101010" d="M 358.5,238.5 C 361.518,238.335 364.518,238.502 367.5,239C 368,239.5 368.5,240 369,240.5C 369.407,243.682 369.907,246.849 370.5,250C 370.357,252.151 369.357,253.818 367.5,255C 363.091,256.262 359.257,255.428 356,252.5C 356.129,249.261 355.962,246.094 355.5,243C 355.557,240.791 356.557,239.291 358.5,238.5 Z"/></g>
<g><path style="opacity:1" fill="#080808" d="M 374.5,238.5 C 377.85,238.335 381.183,238.502 384.5,239C 386.619,241.218 386.952,243.718 385.5,246.5C 383.149,248.229 380.482,248.896 377.5,248.5C 377.5,249.5 377.5,250.5 377.5,251.5C 380.436,250.594 383.436,249.928 386.5,249.5C 386.5,251.5 386.5,253.5 386.5,255.5C 381.833,255.5 377.167,255.5 372.5,255.5C 372.183,252.428 372.516,249.428 373.5,246.5C 376.172,245.499 378.839,244.499 381.5,243.5C 380.667,243.167 379.833,242.833 379,242.5C 376.941,243.618 374.774,244.285 372.5,244.5C 372.253,242.142 372.919,240.142 374.5,238.5 Z"/></g>
<g><path style="opacity:1" fill="#e6eaee" d="M 197.5,231.5 C 198.525,231.897 198.692,232.563 198,233.5C 195,237.167 192,240.833 189,244.5C 188.251,245.635 188.417,246.635 189.5,247.5C 204.5,258.667 219.5,269.833 234.5,281C 216.352,270.576 198.352,259.576 180.5,248C 186.67,242.996 192.337,237.496 197.5,231.5 Z"/></g>
<g><path style="opacity:1" fill="#d7d7d5" d="M 135.5,242.5 C 139.24,241.741 140.907,243.241 140.5,247C 140.907,250.759 139.24,252.259 135.5,251.5C 135.5,248.5 135.5,245.5 135.5,242.5 Z"/></g>
<g><path style="opacity:1" fill="#d4d4d2" d="M 360.5,242.5 C 361.833,242.5 363.167,242.5 364.5,242.5C 364.5,243.5 364.5,244.5 364.5,245.5C 362.027,245.912 360.694,244.912 360.5,242.5 Z"/></g>
<g><path style="opacity:1" fill="#d1d1cf" d="M 360.5,248.5 C 362.288,248.215 363.955,248.548 365.5,249.5C 364.332,251.217 362.665,251.884 360.5,251.5C 360.5,250.5 360.5,249.5 360.5,248.5 Z"/></g>
<g><path style="opacity:1" fill="#080808" d="M 188.5,322.5 C 193.576,323.115 198.576,324.115 203.5,325.5C 204.057,327.718 204.057,330.051 203.5,332.5C 202.5,332.5 201.5,332.5 200.5,332.5C 200.167,334.5 199.833,336.5 199.5,338.5C 202.244,339.205 204.911,339.205 207.5,338.5C 207.998,334.575 207.998,330.575 207.5,326.5C 212.543,327.008 217.543,327.842 222.5,329C 223.136,331.394 223.136,333.894 222.5,336.5C 220.549,336.227 219.049,336.893 218,338.5C 217.167,342.667 216.333,346.833 215.5,351C 215.672,353.17 216.672,354.837 218.5,356C 217.767,357.766 217.433,359.599 217.5,361.5C 212.149,360.963 206.816,360.296 201.5,359.5C 201.523,357.073 202.023,354.74 203,352.5C 208.253,347.74 207.419,345.073 200.5,344.5C 198.261,344.574 197.261,345.741 197.5,348C 199.965,350.964 199.965,353.964 197.5,357C 192.454,357.16 187.454,356.66 182.5,355.5C 182.575,352.794 182.908,350.127 183.5,347.5C 184.833,347.5 186.167,347.5 187.5,347.5C 189.31,341.957 190.143,336.291 190,330.5C 189.075,329.953 188.242,329.287 187.5,328.5C 188.348,326.591 188.682,324.591 188.5,322.5 Z"/></g>
<g><path style="opacity:1" fill="#090909" d="M 306.5,322.5 C 308.5,322.5 310.5,322.5 312.5,322.5C 312.62,324.199 312.954,325.865 313.5,327.5C 312.186,328.986 311.186,330.653 310.5,332.5C 311.631,337.487 312.631,342.487 313.5,347.5C 314.833,347.5 316.167,347.5 317.5,347.5C 318.092,350.127 318.425,352.794 318.5,355.5C 313.464,356.078 308.464,356.578 303.5,357C 303.06,352.995 302.727,348.995 302.5,345C 295.653,342.751 293.32,344.918 295.5,351.5C 296.5,351.5 297.5,351.5 298.5,351.5C 298.292,353.92 298.626,356.253 299.5,358.5C 294.209,359.758 288.875,360.758 283.5,361.5C 283.682,359.409 283.348,357.409 282.5,355.5C 284.272,354.73 285.272,353.397 285.5,351.5C 284.474,347.204 283.641,342.871 283,338.5C 281.951,336.893 280.451,336.227 278.5,336.5C 277.908,333.873 277.575,331.206 277.5,328.5C 282.737,327.203 288.07,326.536 293.5,326.5C 293.002,330.575 293.002,334.575 293.5,338.5C 296.089,339.205 298.756,339.205 301.5,338.5C 301.167,336.5 300.833,334.5 300.5,332.5C 299.5,332.5 298.5,332.5 297.5,332.5C 297.708,330.08 297.374,327.747 296.5,325.5C 299.953,324.487 303.287,323.487 306.5,322.5 Z"/></g>
<g><path style="opacity:1" fill="#090909" d="M 240.5,355.5 C 241.388,358.054 241.721,360.721 241.5,363.5C 235.811,363.468 230.145,363.134 224.5,362.5C 224.337,360.143 224.503,357.81 225,355.5C 226.011,354.663 227.178,354.33 228.5,354.5C 229.459,348.862 229.626,343.195 229,337.5C 226.835,335.347 226.002,332.681 226.5,329.5C 232.167,329.5 237.833,329.5 243.5,329.5C 243.5,332.167 243.5,334.833 243.5,337.5C 242.167,337.5 240.833,337.5 239.5,337.5C 239.618,342.363 239.285,347.197 238.5,352C 238.608,353.681 239.275,354.848 240.5,355.5 Z"/></g>
<g><path style="opacity:1" fill="#0b0b0a" d="M 254.5,329.5 C 259.844,329.334 265.177,329.501 270.5,330C 272.241,331.62 274.075,333.12 276,334.5C 276.495,336.473 276.662,338.473 276.5,340.5C 271.492,341.125 266.992,340.125 263,337.5C 261.833,337.667 260.667,337.833 259.5,338C 258.361,343.416 258.194,348.916 259,354.5C 264.446,356.929 267.28,355.262 267.5,349.5C 265.833,349.5 264.167,349.5 262.5,349.5C 262.5,347.5 262.5,345.5 262.5,343.5C 267.13,342.771 271.797,342.437 276.5,342.5C 276.954,349.159 277.287,355.826 277.5,362.5C 274.289,362.988 271.456,362.321 269,360.5C 261.572,365.185 254.905,364.185 249,357.5C 248.333,350.167 248.333,342.833 249,335.5C 251.04,333.63 252.873,331.63 254.5,329.5 Z"/></g>
<g><path style="opacity:1" fill="#090909" d="M 163.5,356.5 C 169.442,357.425 175.109,359.258 180.5,362C 181.84,364.349 183.174,366.683 184.5,369C 183.144,370.567 182.477,372.4 182.5,374.5C 177.471,374.308 174.138,371.975 172.5,367.5C 170.669,366.071 168.669,365.571 166.5,366C 165.549,366.718 165.383,367.551 166,368.5C 169.416,370.792 172.916,372.959 176.5,375C 180.15,379.636 180.317,384.469 177,389.5C 169.217,393.517 161.717,392.85 154.5,387.5C 152.949,385.116 151.615,382.616 150.5,380C 150.954,377.964 151.787,376.13 153,374.5C 155.022,375.786 157.189,376.786 159.5,377.5C 159.998,381.568 162.331,383.568 166.5,383.5C 168,383.547 169,382.881 169.5,381.5C 166.554,378.687 163.221,376.354 159.5,374.5C 154.765,369.975 154.265,364.975 158,359.5C 159.876,358.391 161.709,357.391 163.5,356.5 Z"/></g>
<g><path style="opacity:1" fill="#727270" d="M 240.5,355.5 C 241.748,356.334 242.415,357.667 242.5,359.5C 242.489,361.045 242.156,362.378 241.5,363.5C 241.721,360.721 241.388,358.054 240.5,355.5 Z"/></g>
<g><path style="opacity:1" fill="#090908" d="M 325.5,358.5 C 327.766,358.141 329.599,358.808 331,360.5C 331.716,363.418 331.216,366.085 329.5,368.5C 330.817,373.644 332.984,378.31 336,382.5C 338.047,381.391 340.213,380.724 342.5,380.5C 340.673,375.21 342.673,373.043 348.5,374C 350.501,377.79 351.501,381.623 351.5,385.5C 342.611,388.74 333.778,392.073 325,395.5C 322.045,391.934 322.212,388.768 325.5,386C 323.537,381.237 321.704,376.403 320,371.5C 316.026,370.907 313.859,368.573 313.5,364.5C 317.407,362.309 321.407,360.309 325.5,358.5 Z"/></g>
<g><path style="opacity:1" fill="#090909" d="M 193.5,366.5 C 199.008,366.64 204.341,367.64 209.5,369.5C 211.555,371.555 213.221,373.888 214.5,376.5C 213.691,378.071 213.357,379.738 213.5,381.5C 210.518,381.037 207.518,380.704 204.5,380.5C 204.714,378.856 204.38,377.356 203.5,376C 200.854,375.503 198.187,375.336 195.5,375.5C 194.203,380.474 193.37,385.474 193,390.5C 194.126,391.944 195.626,392.61 197.5,392.5C 199.754,392.069 201.921,391.403 204,390.5C 206.137,391.077 208.304,391.41 210.5,391.5C 210.002,397.456 206.669,400.789 200.5,401.5C 196.478,400.774 192.478,399.941 188.5,399C 185.644,396.152 183.644,392.819 182.5,389C 183.84,382.796 185.34,376.63 187,370.5C 189.314,369.267 191.481,367.933 193.5,366.5 Z"/></g>
<g><path style="opacity:1" fill="#070707" d="M 300.5,366.5 C 305.163,366.246 309.329,367.58 313,370.5C 314.126,377.088 315.626,383.588 317.5,390C 314.491,398.513 308.324,402.346 299,401.5C 295.761,400.714 292.761,399.381 290,397.5C 288.565,390.827 287.065,384.16 285.5,377.5C 286.531,374.3 288.198,371.467 290.5,369C 294.038,368.465 297.372,367.632 300.5,366.5 Z"/></g>
<g><path style="opacity:1" fill="#0b0b0b" d="M 216.5,370.5 C 221.805,371.194 227.138,371.528 232.5,371.5C 232.5,374.167 232.5,376.833 232.5,379.5C 231.5,379.5 230.5,379.5 229.5,379.5C 229.5,381.5 229.5,383.5 229.5,385.5C 232.5,385.5 235.5,385.5 238.5,385.5C 237.099,381.369 236.433,377.036 236.5,372.5C 241.833,372.5 247.167,372.5 252.5,372.5C 252.5,375.167 252.5,377.833 252.5,380.5C 250.856,380.286 249.356,380.62 248,381.5C 247.333,387.167 247.333,392.833 248,398.5C 250.165,400.653 250.998,403.319 250.5,406.5C 245.167,406.5 239.833,406.5 234.5,406.5C 234.336,403.813 234.503,401.146 235,398.5C 237.103,396.697 237.936,394.364 237.5,391.5C 234.833,391.5 232.167,391.5 229.5,391.5C 229.998,396.152 230.331,400.819 230.5,405.5C 225.155,405.313 219.822,404.98 214.5,404.5C 214.337,402.143 214.503,399.81 215,397.5C 216.356,396.62 217.856,396.286 219.5,396.5C 219.5,390.5 219.5,384.5 219.5,378.5C 218.5,378.5 217.5,378.5 216.5,378.5C 216.5,375.833 216.5,373.167 216.5,370.5 Z"/></g>
<g><path style="opacity:1" fill="#0b0b0b" d="M 260.5,371.5 C 265.844,371.334 271.177,371.501 276.5,372C 278.667,373.5 280.833,375 283,376.5C 283.889,383.826 284.222,391.159 284,398.5C 278.452,405.309 271.286,407.475 262.5,405C 260.333,403.5 258.167,402 256,400.5C 255.734,393.976 255.234,387.476 254.5,381C 256.296,377.704 258.296,374.537 260.5,371.5 Z"/></g>
<g><path style="opacity:1" fill="#ebebe9" d="M 296.5,375.5 C 299.167,375.5 301.833,375.5 304.5,375.5C 304.988,380.274 305.988,384.94 307.5,389.5C 307.023,390.478 306.357,391.311 305.5,392C 303.19,392.497 300.857,392.663 298.5,392.5C 297.694,387.637 296.694,382.804 295.5,378C 295.743,377.098 296.077,376.265 296.5,375.5 Z"/></g>
<g><path style="opacity:1" fill="#eaeae8" d="M 264.5,380.5 C 267.5,380.5 270.5,380.5 273.5,380.5C 274.148,385.828 274.315,391.162 274,396.5C 271.333,397.833 268.667,397.833 266,396.5C 265.433,391.166 264.933,385.833 264.5,380.5 Z"/></g>
</svg>
